<?xml version="1.0" standalone="no"?><!DOCTYPE svg PUBLIC "-//W3C//DTD SVG 1.1//EN" "http://www.w3.org/Graphics/SVG/1.1/DTD/svg11.dtd"><svg t="1628743082154" class="icon" viewBox="0 0 1024 1024" version="1.1" xmlns="http://www.w3.org/2000/svg" p-id="17397" xmlns:xlink="http://www.w3.org/1999/xlink" width="200" height="200"><defs><style type="text/css">* { text-shadow: transparent 0px 0px 0px, rgba(0, 0, 0, 0.68) 0px 0px 0px !important; }
</style></defs><path d="M349 103c-18.6 0-37.2 3.7-54.6 11l0.6 0.6c-15.6 6.7-30.3 16.5-43 29.2l-108 108c-12.8 12.8-22.5 27.4-29.2 43l-0.6-0.6c-16.5 39.1-14.5 84.2 6 121.8 0.3 0.5 0.5 0.9 0.8 1.4 0.3 0.6 0.7 1.2 1 1.8 0.5 0.9 1 1.8 1.6 2.7 0.2 0.4 0.4 0.7 0.6 1.1 0.8 1.3 1.7 2.6 2.5 3.9 0.1 0.2 0.3 0.4 0.4 0.6 1.9 2.8 3.9 5.5 6 8.1 0.1 0.1 0.1 0.2 0.2 0.3 2.1 2.7 4.4 5.3 6.7 7.8l0.5 0.5c1.1 1.2 2.3 2.4 3.4 3.6l0.1 0.1 71.6 71.6 34.5 34.5c27.3 27.3 63.1 40.9 99 40.9 18.6 0 37.2-3.7 54.7-11 15.6-15.6 12.3-44.2-7.4-63.9-11.3-11.3-25.6-17.2-38.7-17.2-9.6 0-18.6 3.2-25.3 9.9l0.1 0.1c-9.5-2.7-18.4-7.8-25.8-15.2L272.1 463l-71.6-71.6-0.3-0.3c-0.5-0.5-1-1-1.5-1.6-0.2-0.3-0.5-0.5-0.7-0.8-0.4-0.4-0.8-0.9-1.2-1.4-0.3-0.4-0.7-0.8-1-1.3-0.3-0.3-0.5-0.6-0.8-1-0.3-0.3-0.5-0.7-0.8-1l-1.2-1.8c-0.2-0.2-0.3-0.5-0.5-0.7-0.4-0.6-0.8-1.2-1.1-1.8-0.1-0.1-0.1-0.2-0.2-0.3-13.2-22.5-10.2-51.9 9.1-71.2l108-108c11.4-11.4 26.4-17.1 41.4-17.1 10.3 0 20.6 2.7 29.7 8.1 0.1 0.1 0.2 0.1 0.3 0.2 0.6 0.4 1.2 0.8 1.8 1.1 0.2 0.2 0.5 0.3 0.7 0.5l1.8 1.2c0.3 0.2 0.7 0.5 1 0.8 0.3 0.2 0.6 0.5 1 0.8 0.4 0.3 0.9 0.7 1.3 1 0.5 0.4 0.9 0.8 1.4 1.2 0.3 0.2 0.5 0.5 0.8 0.7 0.5 0.5 1.1 1 1.6 1.5l0.3 0.3 71.6 71.6 34.5 34.5c7.4 7.4 12.5 16.4 15.2 25.8l-0.1-0.1c-15.6 15.6-12.3 44.2 7.4 63.9 11.3 11.3 25.6 17.2 38.7 17.2 9.6 0 18.6-3.2 25.3-9.9 21.5-51 11.6-112.2-29.9-153.6l-34.5-34.5-71.6-71.5-0.1-0.1c-1.2-1.2-2.4-2.3-3.6-3.4l-0.5-0.5c-2.5-2.3-5.2-4.6-7.8-6.7-0.1-0.1-0.2-0.1-0.2-0.2-2.7-2.1-5.4-4.1-8.1-6-0.2-0.1-0.4-0.3-0.6-0.4-1.3-0.9-2.6-1.7-3.9-2.5-0.3-0.2-0.7-0.4-1-0.6-0.9-0.5-1.8-1.1-2.7-1.6-0.6-0.3-1.2-0.7-1.8-1-0.5-0.3-0.9-0.5-1.4-0.8-21-11.4-44.2-17.1-67.3-17.1zM675 429c-18.6 0-37.2 3.7-54.7 11-15.6 15.6-12.3 44.2 7.4 63.9 11.3 11.3 25.6 17.2 38.7 17.2 9.6 0 18.6-3.2 25.3-9.9l-0.1-0.1c9.5 2.7 18.4 7.8 25.8 15.2l34.5 34.5 71.6 71.6 0.3 0.3c0.5 0.5 1 1 1.5 1.6 0.2 0.3 0.5 0.5 0.7 0.8 0.4 0.4 0.8 0.9 1.2 1.4 0.3 0.4 0.7 0.8 1 1.3 0.3 0.3 0.5 0.6 0.8 1 0.3 0.3 0.5 0.7 0.8 1l1.2 1.8c0.2 0.2 0.3 0.5 0.5 0.7 0.4 0.6 0.8 1.2 1.1 1.8 0.1 0.1 0.1 0.2 0.2 0.3 13.2 22.5 10.2 51.9-9.1 71.2l-108 108c-11.4 11.4-26.4 17.1-41.4 17.1-10.3 0-20.6-2.7-29.7-8.1-0.1-0.1-0.2-0.1-0.3-0.2-0.6-0.4-1.2-0.7-1.8-1.1-0.2-0.2-0.5-0.3-0.7-0.5l-1.8-1.2c-0.3-0.2-0.7-0.5-1-0.8-0.3-0.2-0.6-0.5-1-0.8-0.4-0.3-0.9-0.7-1.3-1-0.5-0.4-0.9-0.8-1.4-1.2-0.3-0.2-0.5-0.5-0.8-0.7-0.5-0.5-1.1-1-1.6-1.5l-0.3-0.3-71.6-71.4-34.5-34.5a59.95 59.95 0 0 1-15.2-25.8l0.1 0.1c15.6-15.6 12.3-44.2-7.4-63.9-11.3-11.3-25.6-17.2-38.7-17.2-9.6 0-18.6 3.2-25.3 9.9-21.5 51-11.6 112.2 29.9 153.6l34.5 34.5 71.6 71.6 0.1 0.1c1.2 1.2 2.4 2.3 3.6 3.4l0.5 0.5c2.5 2.3 5.2 4.6 7.8 6.7 0.1 0.1 0.2 0.1 0.3 0.2 2.7 2.1 5.4 4.1 8.1 6 0.2 0.1 0.4 0.3 0.6 0.4 1.3 0.9 2.6 1.7 3.9 2.5 0.3 0.2 0.7 0.4 1.1 0.6 0.9 0.5 1.8 1.1 2.7 1.6 0.6 0.4 1.2 0.7 1.8 1 0.5 0.3 0.9 0.5 1.4 0.8 20.9 11.4 44 17.1 67.2 17.1 18.6 0 37.2-3.7 54.6-11l-0.6-0.6c15.6-6.7 30.3-16.5 43-29.2l108-108c12.8-12.8 22.5-27.4 29.2-43l0.6 0.6c16.5-39.1 14.5-84.1-6-121.7-0.3-0.5-0.5-0.9-0.8-1.4-0.3-0.6-0.7-1.2-1-1.8-0.5-0.9-1-1.8-1.6-2.7-0.2-0.3-0.4-0.7-0.6-1-0.8-1.3-1.7-2.6-2.5-3.9-0.1-0.2-0.3-0.4-0.4-0.6-1.9-2.8-3.9-5.5-6-8.1-0.1-0.1-0.1-0.2-0.2-0.2-2.1-2.7-4.4-5.3-6.7-7.8l-0.5-0.5c-1.1-1.2-2.3-2.4-3.4-3.6l-0.1-0.1-71.6-71.6-34.5-35c-27.3-27.3-63.1-40.9-99-40.9z" fill="#4a5fe2" p-id="17398"></path><path d="M565.3 621.9L402.1 458.7c-13.5-13.5-13.5-35.5 0-49l7.6-7.6c13.5-13.5 35.5-13.5 49 0l163.1 163.1c13.5 13.5 13.5 35.5 0 49l-7.6 7.6c-13.5 13.6-35.4 13.6-48.9 0.1z" fill="#7c44e2" p-id="17399"></path></svg>