<?xml version="1.0" standalone="no"?><!DOCTYPE svg PUBLIC "-//W3C//DTD SVG 1.1//EN" "http://www.w3.org/Graphics/SVG/1.1/DTD/svg11.dtd"><svg t="1628744100597" class="icon" viewBox="0 0 1024 1024" version="1.1" xmlns="http://www.w3.org/2000/svg" p-id="6949" xmlns:xlink="http://www.w3.org/1999/xlink" width="200" height="200"><defs><style type="text/css">* { text-shadow: transparent 0px 0px 0px, rgba(0, 0, 0, 0.68) 0px 0px 0px !important; }
</style></defs><path d="M773.162667 195.456l-107.946667 82.773333 38.826667 130.56-112.213334-77.226666-112.213333 77.226666 38.826667-130.56-107.946667-82.773333 136.106667-3.84 45.226666-128 45.226667 128 136.106667 3.84m149.333333 294.826667l-69.973333 53.333333 25.173333 84.48-72.533333-49.92-72.533334 49.92 25.173334-84.48-69.973334-53.333333 87.893334-2.133334 29.44-83.2 29.44 83.2 87.893333 2.133334m-97.28 211.2c35.413333-3.413333 73.386667 46.933333 50.773333 78.933333-13.653333 19.2-28.16 37.12-46.08 54.186667-166.826667 167.68-436.906667 167.68-603.306666 0-166.826667-166.4-166.826667-436.906667 0-603.306667 17.066667-17.066667 34.986667-32.426667 54.186666-46.08 32-22.613333 82.346667 15.36 78.933334 50.773333-11.52 122.026667 29.44 248.746667 123.306666 342.186667a424.96 424.96 0 0 0 342.186667 123.306667m-69.973333 86.186666a515.413333 515.413333 0 0 1-332.8-148.053333c-92.586667-93.44-142.08-213.333333-148.906667-333.653333-119.893333 133.973333-115.2 339.626667 13.226667 468.48 128.853333 128.426667 334.506667 133.12 468.48 13.226666z" fill="#FBC02D" p-id="6950"></path></svg>